# Blender v2.82 (sub 7) OBJ File: ''
# www.blender.org
mtllib Highlight_fix.mtl
o Default.001
v -0.500000 1.000014 0.500050
v 0.500000 1.000114 -0.499950
v -0.500000 1.000114 -0.499950
v 0.500000 1.000014 0.500050
v -0.500000 -0.000000 0.500000
v 0.500000 -0.000000 0.500000
v -0.500000 0.000000 -0.500000
v 0.500000 0.000000 -0.500000
vt 0.866667 0.230769
vt 0.800000 0.307692
vt 0.866667 0.307692
vt 0.800000 0.230769
vt 0.800000 0.230769
vt 0.733333 0.307692
vt 0.800000 0.307692
vt 0.733333 0.230769
vt 0.800000 0.230769
vt 0.733333 0.307692
vt 0.800000 0.307692
vt 0.733333 0.230769
vt 0.800000 0.230769
vt 0.733333 0.307692
vt 0.733333 0.230769
vt 0.800000 0.230769
vt 0.733333 0.307692
vt 0.800000 0.307692
vt 0.733333 0.230769
vt 0.733333 0.307692
vt 0.800000 0.307692
vn 0.0000 1.0000 0.0001
vn 0.0000 -0.0001 1.0000
vn -1.0000 0.0000 0.0000
vn 0.0000 0.0001 -1.0000
vn 1.0000 0.0000 0.0000
vn 0.0000 -1.0000 -0.0000
usemtl material1.001
s 1
f 1/1/1 2/2/1 3/3/1
f 1/1/1 4/4/1 2/2/1
f 5/5/2 4/6/2 1/7/2
f 5/5/2 6/8/2 4/6/2
f 7/9/3 1/10/3 3/11/3
f 7/9/3 5/12/3 1/10/3
f 8/13/4 3/14/4 2/2/4
f 8/13/4 7/15/4 3/14/4
f 6/16/5 2/17/5 4/18/5
f 6/16/5 8/19/5 2/17/5
f 7/9/6 6/20/6 5/21/6
f 7/9/6 8/19/6 6/20/6
