o Default
v -0.5 0.9999118738987713 0.49994999500025006
v -0.5 1.0000118738982713 -0.50004999999975
v 0.5 1.0000118738982713 -0.50004999999975
v 0.5 0.9999118738987713 0.49994999500025006
v -0.49999999999999994 0 -0.5
v -0.4999999999999997 0 0.5
v 0.5 0 -0.5
v 0.5 0.000018703431393402988 0.4999500000002499
vt 0.26666666666666666 0.7333333333333334
vt 0.3333333333333333 0.8
vt 0.26666666666666666 0.8
vt 0.26666666666666666 0.7333333333333334
vt 0.3333333333333333 0.7333333333333334
vt 0.3333333333333333 0.8
vt 0.26666666666666666 0.4
vt 0.3333333333333333 0.4666666666666667
vt 0.26666666666666666 0.4666666666666667
vt 0.26666666666666666 0.4
vt 0.3333333333333333 0.4
vt 0.3333333333333333 0.4666666666666667
vt 0.26666666666666666 0.4
vt 0.3333333333333333 0.4666666666666667
vt 0.26666666666666666 0.4666666666666667
vt 0.26666666666666666 0.4
vt 0.3333333333333333 0.4
vt 0.3333333333333333 0.4666666666666667
vt 0.26666666666666666 0.4
vt 0.3333333333333333 0.4666666666666667
vt 0.26666666666666666 0.4666666666666667
vt 0.26666666666666666 0.4
vt 0.3333333333333333 0.4
vt 0.3333333333333333 0.4666666666666667
vt 0.26666666666666666 0.4
vt 0.3333333333333333 0.4666666666666667
vt 0.26666666666666666 0.4666666666666667
vt 0.26666666666666666 0.4
vt 0.3333333333333333 0.4
vt 0.3333333333333333 0.4666666666666667
vt 0.26666666666666666 0.4
vt 0.3333333333333333 0.4666666666666667
vt 0.26666666666666666 0.4666666666666667
vt 0.26666666666666666 0.4
vt 0.3333333333333333 0.4
vt 0.3333333333333333 0.4666666666666667
vn 0 0.999999995 0.00009999999949994454
vn 0 0.999999995 0.00009999999949994454
vn 0 0.999999995 0.00009999999949994454
vn 0 0.999999995 0.00009999999949994454
vn 0 0.999999995 0.00009999999949994454
vn 0 0.999999995 0.00009999999949994454
vn -1 -5.551049238287074e-17 -5.551049238283995e-21
vn -1 -5.551049238287074e-17 -5.551049238283995e-21
vn -1 -5.551049238287074e-17 -5.551049238283995e-21
vn -1 -2.775691138997049e-16 2.220446049250313e-16
vn -1 -2.775691138997049e-16 2.220446049250313e-16
vn -1 -2.775691138997049e-16 2.220446049250313e-16
vn 0 -0.00004999940599961328 -0.9999999987500295
vn 0 -0.00004999940599961328 -0.9999999987500295
vn 0 -0.00004999940599961328 -0.9999999987500295
vn 0 -0.00004999940599961328 -0.9999999987500295
vn 0 -0.00004999940599961328 -0.9999999987500295
vn 0 -0.00004999940599961328 -0.9999999987500295
vn 0.00001870343139013159 -0.9999999998250908 -3.3881317884245867e-21
vn 0.00001870343139013159 -0.9999999998250908 -3.3881317884245867e-21
vn 0.00001870343139013159 -0.9999999998250908 -3.3881317884245867e-21
vn 0 -0.9999999998250734 0.000018704366608457007
vn 0 -0.9999999998250734 0.000018704366608457007
vn 0 -0.9999999998250734 0.000018704366608457007
vn 1 0 0
vn 1 0 0
vn 1 0 0
vn 1 0 0
vn 1 0 0
vn 1 0 0
vn 0 0.000050009406821460046 0.9999999987495297
vn 0 0.000050009406821460046 0.9999999987495297
vn 0 0.000050009406821460046 0.9999999987495297
vn 0.00004999999959405616 5.00053405705652e-9 0.99999999875
vn 0.00004999999959405616 5.00053405705652e-9 0.99999999875
vn 0.00004999999959405616 5.00053405705652e-9 0.99999999875
g Scene
f 1/1/1 3/2/2 2/3/3
f 1/4/4 4/5/5 3/6/6
f 5/7/7 1/8/8 2/9/9
f 5/10/10 6/11/11 1/12/12
f 7/13/13 2/14/14 3/15/15
f 7/16/16 5/17/17 2/18/18
f 5/19/19 8/20/20 6/21/21
f 5/22/22 7/23/23 8/24/24
f 8/25/25 3/26/26 4/27/27
f 8/28/28 7/29/29 3/30/30
f 6/31/31 4/32/32 1/33/33
f 6/34/34 8/35/35 4/36/36
