o Default
v -0.5 0.9999125916453503 0.49994999500025006
v -0.5 1.0000125916448503 -0.50004999999975
v 0.5 1.0000125916448503 -0.50004999999975
v 0.5 0.9999125916453503 0.49994999500025006
v -0.5 -0.000006950964375393025 -0.4999500000002499
v -0.5 0.00009304903512455151 0.5000499949997501
v 0.5 0.00009304903512455151 0.5000499949997501
v 0.5 -0.000006950964375393025 -0.4999500000002499
vt 0.6 0.4
vt 0.6666666666666666 0.4666666666666667
vt 0.6 0.4666666666666667
vt 0.6 0.4
vt 0.6666666666666666 0.4
vt 0.6666666666666666 0.4666666666666667
vt 0.26666666666666666 0.4
vt 0.3333333333333333 0.4666666666666667
vt 0.26666666666666666 0.4666666666666667
vt 0.26666666666666666 0.4
vt 0.3333333333333333 0.4
vt 0.3333333333333333 0.4666666666666667
vt 0.26666666666666666 0.4
vt 0.3333333333333333 0.4666666666666667
vt 0.26666666666666666 0.4666666666666667
vt 0.26666666666666666 0.4
vt 0.3333333333333333 0.4
vt 0.3333333333333333 0.4666666666666667
vt 0.26666666666666666 0.4
vt 0.3333333333333333 0.4666666666666667
vt 0.26666666666666666 0.4666666666666667
vt 0.26666666666666666 0.4
vt 0.3333333333333333 0.4
vt 0.3333333333333333 0.4666666666666667
vt 0.26666666666666666 0.4
vt 0.3333333333333333 0.4666666666666667
vt 0.26666666666666666 0.4666666666666667
vt 0.26666666666666666 0.4
vt 0.3333333333333333 0.4
vt 0.3333333333333333 0.4666666666666667
vt 0.26666666666666666 0.4
vt 0.3333333333333333 0.4666666666666667
vt 0.26666666666666666 0.4666666666666667
vt 0.26666666666666666 0.4
vt 0.3333333333333333 0.4
vt 0.3333333333333333 0.4666666666666667
vn 0 0.999999995 0.00009999999950005556
vn 0 0.999999995 0.00009999999950005556
vn 0 0.999999995 0.00009999999950005556
vn 0 0.999999995 0.00009999999950005556
vn 0 0.999999995 0.00009999999950005556
vn 0 0.999999995 0.00009999999950005556
vn 0 -0.999999995 0.00009999999949994454
vn 0 -0.999999995 0.00009999999949994454
vn 0 -0.999999995 0.00009999999949994454
vn 0 -0.999999995 0.00009999999949994454
vn 0 -0.999999995 0.00009999999949994454
vn 0 -0.999999995 0.00009999999949994454
vn 0 -0.00009999804477736269 -0.9999999950001954
vn 0 -0.00009999804477736269 -0.9999999950001954
vn 0 -0.00009999804477736269 -0.9999999950001954
vn 0 -0.00009999804477736269 -0.9999999950001954
vn 0 -0.00009999804477736269 -0.9999999950001954
vn 0 -0.00009999804477736269 -0.9999999950001954
vn 1 0 0
vn 1 0 0
vn 1 0 0
vn 1 0 0
vn 1 0 0
vn 1 0 0
vn 0 0.00010001804799574668 0.9999999949981949
vn 0 0.00010001804799574668 0.9999999949981949
vn 0 0.00010001804799574668 0.9999999949981949
vn 0 0.00010001804799574668 0.9999999949981949
vn 0 0.00010001804799574668 0.9999999949981949
vn 0 0.00010001804799574668 0.9999999949981949
vn -1 0 0
vn -1 0 0
vn -1 0 0
vn -1 0 0
vn -1 0 0
vn -1 0 0
g Scene
f 1/1/1 3/2/2 2/3/3
f 1/4/4 4/5/5 3/6/6
f 5/7/7 7/8/8 6/9/9
f 5/10/10 8/11/11 7/12/12
f 8/13/13 2/14/14 3/15/15
f 8/16/16 5/17/17 2/18/18
f 7/19/19 3/20/20 4/21/21
f 7/22/22 8/23/23 3/24/24
f 6/25/25 4/26/26 1/27/27
f 6/28/28 7/29/29 4/30/30
f 5/31/31 1/32/32 2/33/33
f 5/34/34 6/35/35 1/36/36
