mtllib material.mtl
o Default
v -0.5 0.9998849372584223 0.49994999500025006
v -0.5 0.9999849372579223 -0.50004999999975
v 0.5 0.9999849372579223 -0.50004999999975
v 0.5 0.9998849372584223 0.49994999500025006
v -0.5 0.000030167027147045053 -0.4999500000002499
v -0.5 0.0001301670266469896 0.5000499949997501
v 0.5 0.0001301670266469896 0.5000499949997501
v 0.5 0.000030167027147045053 -0.4999500000002499
v -0.49999999999999917 0 -0.5
v -0.49999999999999917 1 -0.5
v -0.49999999999999895 1 0.5
v -0.49999999999999895 0 0.5
v 0.5 0 -0.5
v 0.5 1 -0.5
v -0.5 1 -0.5
v -0.5 0 -0.5
v 0.4999999999999991 0 0.5000000000000002
v 0.4999999999999991 1 0.5000000000000002
v 0.49999999999999933 1 -0.49999999999999983
v 0.49999999999999933 0 -0.49999999999999983
v -0.5 0 0.5000000000000009
v -0.5 1 0.5000000000000009
v 0.5 1 0.5000000000000009
v 0.5 0 0.5000000000000009
vt 0.5333333333333333 0.7333333333333334
vt 0.4666666666666667 0.8
vt 0.5333333333333333 0.8
vt 0.5333333333333333 0.7333333333333334
vt 0.4666666666666667 0.7333333333333334
vt 0.4666666666666667 0.8
vt 0.26666666666666666 0.4666666666666667
vt 0.2 0.5333333333333333
vt 0.26666666666666666 0.5333333333333333
vt 0.26666666666666666 0.4666666666666667
vt 0.2 0.4666666666666667
vt 0.2 0.5333333333333333
vt 0.26666666666666666 0.4666666666666667
vt 0.2 0.5333333333333333
vt 0.26666666666666666 0.5333333333333333
vt 0.26666666666666666 0.4666666666666667
vt 0.2 0.4666666666666667
vt 0.2 0.5333333333333333
vt 0.26666666666666666 0.4666666666666667
vt 0.2 0.5333333333333333
vt 0.26666666666666666 0.5333333333333333
vt 0.26666666666666666 0.4666666666666667
vt 0.2 0.4666666666666667
vt 0.2 0.5333333333333333
vt 0.26666666666666666 0.4666666666666667
vt 0.2 0.5333333333333333
vt 0.26666666666666666 0.5333333333333333
vt 0.26666666666666666 0.4666666666666667
vt 0.2 0.4666666666666667
vt 0.2 0.5333333333333333
vt 0.26666666666666666 0.4666666666666667
vt 0.2 0.5333333333333333
vt 0.26666666666666666 0.5333333333333333
vt 0.26666666666666666 0.4666666666666667
vt 0.2 0.4666666666666667
vt 0.2 0.5333333333333333
vn 0 0.999999995 0.00009999999949994454
vn 0 0.999999995 0.00009999999949994454
vn 0 0.999999995 0.00009999999949994454
vn 0 0.999999995 0.00009999999949994454
vn 0 0.999999995 0.00009999999949994454
vn 0 0.999999995 0.00009999999949994454
vn 0 -0.999999995 0.00009999999949994454
vn 0 -0.999999995 0.00009999999949994454
vn 0 -0.999999995 0.00009999999949994454
vn 0 -0.999999995 0.00009999999949994454
vn 0 -0.999999995 0.00009999999949994454
vn 0 -0.999999995 0.00009999999949994454
vn -1 0 2.220446049250313e-16
vn -1 0 2.220446049250313e-16
vn -1 0 2.220446049250313e-16
vn -1 0 2.220446049250313e-16
vn -1 0 2.220446049250313e-16
vn -1 0 2.220446049250313e-16
vn 0 0 -1
vn 0 0 -1
vn 0 0 -1
vn 0 0 -1
vn 0 0 -1
vn 0 0 -1
vn 1 0 2.220446049250313e-16
vn 1 0 2.220446049250313e-16
vn 1 0 2.220446049250313e-16
vn 1 0 2.220446049250313e-16
vn 1 0 2.220446049250313e-16
vn 1 0 2.220446049250313e-16
vn 0 0 1
vn 0 0 1
vn 0 0 1
vn 0 0 1
vn 0 0 1
vn 0 0 1
g Scene
usemtl material1
f 1/1/1 3/2/2 2/3/3
f 1/4/4 4/5/5 3/6/6
f 5/7/7 7/8/8 6/9/9
f 5/10/10 8/11/11 7/12/12
f 9/13/13 11/14/14 10/15/15
f 9/16/16 12/17/17 11/18/18
f 13/19/19 15/20/20 14/21/21
f 13/22/22 16/23/23 15/24/24
f 17/25/25 19/26/26 18/27/27
f 17/28/28 20/29/29 19/30/30
f 21/31/31 23/32/32 22/33/33
f 21/34/34 24/35/35 23/36/36
