# Created by MKDS Course Modifier
mtllib Eterna City House.mtl
g polygon0
usemtl h_mado
v 5 12.05469 13
v 23.10938 12.05469 13
v 23.10938 32.16797 13
v 5 32.16797 13
vn 0 0 0.9980469
vn 0 0 0.9980469
vn 0 0 0.9980469
vn 0 0 0.9980469
vt -0.9375 -1.9375
vt -0.0625 -1.9375
vt -0.0625 -1.0625
vt -0.9375 -1.0625
f 1/1/1 2/2/2 3/3/3 4/4/4
g polygon1
usemtl h_kage
v 31 1 18
v 35 1 18
v 35 1 -16
v 31 1 -22
v -30 1 18
v 31 1 18
v 31 1 -22
v -30 1 -22
v 31 1 22
v 35 1 22
v 35 1 18
v 31 1 18
v -25 1 22
v 31 1 22
v 31 1 18
v -30 1 18
vn 0 0.9980469 0
vn 0 0.9980469 0
vn 0 0.9980469 0
vn 0 0.9980469 0
vn 0 0.9980469 0
vn 0 0.9980469 0
vn 0 0.9980469 0
vn 0 0.9980469 0
vn 0 0.9980469 0
vn 0 0.9980469 0
vn 0 0.9980469 0
vn 0 0.9980469 0
vn 0 0.9980469 0
vn 0 0.9980469 0
vn 0 0.9980469 0
vn 0 0.9980469 0
vt 0.890625 -0.734375
vt 0.984375 -0.734375
vt 0.984375 -0.640625
vt 0.890625 -0.640625
vt 0.890625 -0.734375
vt 0.984375 -0.734375
vt 0.984375 -0.640625
vt 0.890625 -0.640625
vt 0.890625 -0.734375
vt 0.984375 -0.734375
vt 0.984375 -0.640625
vt 0.890625 -0.640625
vt 0.890625 -0.734375
vt 0.984375 -0.734375
vt 0.984375 -0.640625
vt 0.890625 -0.640625
f 5/5/5 6/6/6 7/7/7 8/8/8
f 9/9/9 10/10/10 11/11/11 12/12/12
f 13/13/13 14/14/14 15/15/15 16/16/16
f 17/17/17 18/18/18 19/19/19 20/20/20
g polygon2
usemtl c4_h01
v 28 38.5 16.75
v 21 30.5 16.75
v 28 10 16.75
v 21 14.5 16.75
v 6 10 16.75
v 7 14.5 16.75
v 6 38.5 16.75
v 7 30.5 16.75
v 28 38.5 16.75
v 21 30.5 16.75
vn 0 0 0.9980469
vn 0 0 0.9980469
vn 0 0 0.9980469
vn 0 0 0.9980469
vn 0 0 0.9980469
vn 0 0 0.9980469
vn 0 0 0.9980469
vn 0 0 0.9980469
vn 0 0 0.9980469
vn 0 0 0.9980469
vt 0.515625 -0.015625
vt 0.640625 -0.140625
vt 0.515625 -0.484375
vt 0.640625 -0.40625
vt 0.984375 -0.484375
vt 0.890625 -0.40625
vt 0.984375 -0.015625
vt 0.890625 -0.140625
vt 0.515625 -0.015625
vt 0.640625 -0.140625
f 21/21/21 22/22/22 23/23/23
f 22/22/22 24/24/24 23/23/23
f 23/23/23 24/24/24 25/25/25
f 24/24/24 26/26/26 25/25/25
f 25/25/25 26/26/26 27/27/27
f 26/26/26 28/28/28 27/27/27
f 27/27/27 28/28/28 29/29/29
f 28/28/28 30/30/30 29/29/29
v -28 10 16.75
v -19 10 16.75
v -28 38.5 16.75
v -19 34.5 16.75
v 6 38.5 16.75
v 3 34.5 16.75
v 6 10 16.75
v 3 10 16.75
vn 0 0 0.9980469
vn 0 0 0.9980469
vn 0 0 0.9980469
vn 0 0 0.9980469
vn 0 0 0.9980469
vn 0 0 0.9980469
vn 0 0 0.9980469
vn 0 0 0.9980469
vt 0.515625 -0.484375
vt 0.6875 -0.484375
vt 0.515625 -0.015625
vt 0.6875 -0.078125
vt 0.984375 -0.015625
vt 0.953125 -0.078125
vt 0.984375 -0.484375
vt 0.953125 -0.484375
f 31/31/31 32/32/32 33/33/33
f 32/32/32 34/34/34 33/33/33
f 33/33/33 34/34/34 35/35/35
f 34/34/34 36/36/36 35/35/35
f 35/35/35 36/36/36 37/37/37
f 36/36/36 38/38/38 37/37/37
v 28 38.5 10.75
v 28 10 10.75
v 28 38.5 -1
v 28 10 -1
v 28 38.5 -13.75
v 28 10 -13.75
vn 0.9980469 0 0
vn 0.9980469 0 0
vn 0.9980469 0 0
vn 0.9980469 0 0
vn 0.9980469 0 0
vn 0.9980469 0 0
vt -0.453125 -0.015625
vt -0.453125 -0.484375
vt -0.015625 -0.015625
vt -0.015625 -0.484375
vt -0.453125 -0.015625
vt -0.453125 -0.484375
f 39/39/39 40/40/40 41/41/41
f 40/40/40 42/42/42 41/41/41
f 41/41/41 42/42/42 43/43/43
f 42/42/42 44/44/44 43/43/43
v -28 10 10.75
v -28 38.5 10.75
v -28 10 -1
v -28 38.5 -1
v -28 10 -13.75
v -28 38.5 -13.75
vn -1 0 0
vn -1 0 0
vn -1 0 0
vn -1 0 0
vn -1 0 0
vn -1 0 0
vt -0.453125 -0.484375
vt -0.453125 -0.015625
vt -0.015625 -0.484375
vt -0.015625 -0.015625
vt -0.453125 -0.484375
vt -0.453125 -0.015625
f 45/45/45 46/46/46 47/47/47
f 46/46/46 48/48/48 47/47/47
f 47/47/47 48/48/48 49/49/49
f 48/48/48 50/50/50 49/49/49
v 28 2 16.75
v 28 10 16.75
v 6 2 16.75
v 6 10 16.75
v 3 2 16.75
v 3 10 16.75
vn 0 0 0.9980469
vn 0 0 0.9980469
vn 0 0 0.9980469
vn 0 0 0.9980469
vn 0 0 0.9980469
vn 0 0 0.9980469
vt 0.984375 -0.984375
vt 0.984375 -0.890625
vt 0.890625 -0.984375
vt 0.890625 -0.890625
vt 0.890625 -0.984375
vt 0.890625 -0.890625
f 51/51/51 52/52/52 53/53/53
f 52/52/52 54/54/54 53/53/53
f 53/53/53 54/54/54 55/55/55
f 54/54/54 56/56/56 55/55/55
v 30 45 20.08594
v 33 47 20.08594
v 2 69.99219 20.08594
v 2 75.01563 20.08594
v -2 70.00781 20.08594
v -2 75 20.08594
vn 0 0 0.9980469
vn 0 0 0.9980469
vn 0 0 0.9980469
vn 0 0 0.9980469
vn 0 0 0.9980469
vn 0 0 0.9980469
vt 0.390625 -0.234375
vt 0.484375 -0.234375
vt 0.390625 -0.1689453
vt 0.484375 -0.1669922
vt 0.390625 -0.140625
vt 0.484375 -0.140625
f 57/57/57 58/58/58 59/59/59
f 58/58/58 60/60/60 59/59/59
f 59/59/59 60/60/60 61/61/61
f 60/60/60 62/62/62 61/61/61
v 29 44.5 16.75
v 0 70 16.75
v 0 44.5 16.75
v -29 44.5 16.75
vn 0 0 0.9980469
vn 0 0 0.9980469
vn 0 0 0.9980469
vn 0 0 0.9980469
vt 0.015625 -0.515625
vt 0.359375 -0.515625
vt 0.1875 -0.859375
vt 0.015625 -0.515625
f 63/63/63 64/64/64 65/65/65
f 64/64/64 66/66/66 65/65/65
v -19 10 14.75
v -19 10 16.75
v -19 2 16.75
v -19 2 14.75
v -28 10 10.75
v -28 10 -1
v -28 2 -1
v -28 2 10.75
v 29 44.5 -1
v 29 38.5 -1
v 29 38.5 -13.75
v 29 44.5 -19.75
v -28 10 16.75
v -28 10 10.75
v -28 2 10.75
v -28 2 16.75
v 28 10 16.75
v 28 10 10.75
v 28 38.5 10.75
v 28 38.5 16.75
v -19 10 16.75
v -28 10 16.75
v -28 2 16.75
v -19 2 16.75
v -28 10 -13.75
v -28 10 -19.75
v -28 2 -19.75
v -28 2 -13.75
v 28 10 -19.75
v 28 10 -13.75
v 28 2 -13.75
v 28 2 -19.75
v 3 2 2.75
v 3 10 14.75
v 3 34.5 14.75
v 3 34.5 2.75
v -19 2 14.75
v 3 2 14.75
v 3 2 2.75
v -19 2 2.75
v 2 48 18.05078
v 15 60 18.05078
v 15 60 17.05078
v 2 48 17.05078
v 19 58 18.05078
v 15 60 18.05078
v 2 48 18.05078
v 5 45.14844 18.05078
v -2 48 18.05078
v -2 48 17.05078
v -15 60 17.05078
v -15 60 18.05078
v -19 58 18.05078
v -5 45.14844 18.05078
v -2 48 18.05078
v -15 60 18.05078
v -2 45 17.05078
v -2 45 18.05078
v -2 69 18.05078
v -2 69 17.05078
v 2 45 18.05078
v 2 45 17.05078
v 2 69 17.05078
v 2 69 18.05078
v -2 45 18.05078
v 2 45 18.05078
v 2 69 18.05078
v -2 69 18.05078
v 28 10 16.75
v 28 38.5 16.75
v 28 38.5 18
v 28 10 18
v 23 10 18
v 23 38.5 18
v 23 38.5 16.75
v 23 10 16.75
v 28 10 18
v 28 38.5 18
v 23 38.5 18
v 23 10 18
v -28 10 16.75
v -28 10 18
v -28 38.5 18
v -28 38.5 16.75
v -23 10 18
v -23 10 16.75
v -23 38.5 16.75
v -23 38.5 18
v -28 10 18
v -23 10 18
v -23 38.5 18
v -28 38.5 18
v -33 47 20.08594
v -30 45 20.08594
v -2 70.00781 20.08594
v -2 75 20.08594
v -33 47 20.08594
v -2 75 20.08594
v -2 75 -0.9140625
v -33 47 -1
v -33 47 -1
v -2 75 -0.9140625
v -2 75 -21.91406
v -33 47 -22
v 33 47 -22
v 2 75.01563 -21.9375
v 2 75.01563 -0.9375
v 33 47 -1
v 33 47 -1
v 2 75.01563 -0.9375
v 2 75.01563 20.08594
v 33 47 20.08594
v 3 2 16.75
v 3 10 16.75
v 3 10 14.75
v 3 2 14.75
v -19 34.5 16.75
v -19 10 16.75
v -19 10 14.75
v -19 34.5 14.75
v 21 14.5 14
v 7 14.5 14
v 7 14.5 16.75
v 21 14.5 16.75
v 21 14.5 16.75
v 21 30.5 16.75
v 21 30.5 14
v 21 14.5 14
v 7 30.5 16.75
v 7 14.5 16.75
v 7 14.5 14
v 7 30.5 14
v -29 38.5 10.75
v -29 44.5 16.75
v -29 44.5 -1
v -29 38.5 -1
v 2 75.01563 -0.9375
v 2 75.01563 -21.9375
v -2 75 -21.91406
v -2 75 -0.9140625
v 29 44.5 16.75
v 29 38.5 10.75
v 29 38.5 -1
v 29 44.5 -1
v 28 2 -13.75
v 28 10 -13.75
v 28 10 -1
v 28 2 -1
v -28 38.5 10.75
v -28 10 10.75
v -28 10 16.75
v -28 38.5 16.75
v 28 2 10.75
v 28 10 10.75
v 28 10 16.75
v 28 2 16.75
v 2 75.01563 20.08594
v 2 75.01563 -0.9375
v -2 75 -0.9140625
v -2 75 20.08594
v -28 2 -1
v -28 10 -1
v -28 10 -13.75
v -28 2 -13.75
v 28 2 -1
v 28 10 -1
v 28 10 10.75
v 28 2 10.75
v 29 44.5 16.75
v 0 44.5 16.75
v 0 44.5 19
v 29 44.5 19
v 29 38.5 16.75
v 29 44.5 16.75
v 29 44.5 19
v 29 38.5 19
v 0 44.5 16.75
v -29 44.5 16.75
v -29 44.5 19
v 0 44.5 19
v -29 44.5 16.75
v -29 38.5 16.75
v -29 38.5 19
v -29 44.5 19
v -28 38.5 -19.75
v -28 10 -19.75
v -28 10 -13.75
v -28 38.5 -13.75
v -29 38.5 -1
v -29 44.5 -1
v -29 44.5 -19.75
v -29 38.5 -13.75
v 28 38.5 -19.75
v 28 38.5 -13.75
v 28 10 -13.75
v 28 10 -19.75
v 0 44.5 19
v 0 38.5 19
v 29 38.5 19
v 29 44.5 19
v -29 44.5 19
v -29 38.5 19
v 0 38.5 19
v 0 44.5 19
v 7 30.5 14
v 7 14.5 14
v 21 14.5 14
v 21 30.5 14
v 3 2 2.75
v 3 34.5 2.75
v -19 34.5 2.75
v -19 2 2.75
v -19 2 2.75
v -19 34.5 2.75
v -19 34.5 14.75
v -19 10 14.75
v 3 10 14.75
v 3 10 16.75
v 3 34.5 16.75
v 3 34.5 14.75
vn 0.9980469 0 0
vn 0.9980469 0 0
vn 0.9980469 0 0
vn 0.9980469 0 0
vn -1 0 0
vn -1 0 0
vn -1 0 0
vn -1 0 0
vn 0.9980469 0 0
vn 0.9980469 0 0
vn 0.9980469 0 0
vn 0.9980469 0 0
vn -1 0 0
vn -1 0 0
vn -1 0 0
vn -1 0 0
vn 0.9980469 0 0
vn 0.9980469 0 0
vn 0.9980469 0 0
vn 0.9980469 0 0
vn 0 0 0.9980469
vn 0 0 0.9980469
vn 0 0 0.9980469
vn 0 0 0.9980469
vn -1 0 0
vn -1 0 0
vn -1 0 0
vn -1 0 0
vn 0.9980469 0 0
vn 0.9980469 0 0
vn 0.9980469 0 0
vn 0.9980469 0 0
vn -1 0 0
vn -1 0 0
vn -1 0 0
vn -1 0 0
vn 0 0.9980469 0
vn 0 0.9980469 0
vn 0 0.9980469 0
vn 0 0.9980469 0
vn -0.6699219 0.7421875 0
vn -0.6699219 0.7421875 0
vn -0.6699219 0.7421875 0
vn -0.6699219 0.7421875 0
vn 0 0 0.9980469
vn 0 0 0.9980469
vn 0 0 0.9980469
vn 0 0 0.9980469
vn 0.6699219 0.7421875 0
vn 0.6699219 0.7421875 0
vn 0.6699219 0.7421875 0
vn 0.6699219 0.7421875 0
vn 0 0 0.9980469
vn 0 0 0.9980469
vn 0 0 0.9980469
vn 0 0 0.9980469
vn -1 0 0
vn -1 0 0
vn -1 0 0
vn -1 0 0
vn 0.9980469 0 0
vn 0.9980469 0 0
vn 0.9980469 0 0
vn 0.9980469 0 0
vn 0 0 0.9980469
vn 0 0 0.9980469
vn 0 0 0.9980469
vn 0 0 0.9980469
vn 0.9980469 0 0
vn 0.9980469 0 0
vn 0.9980469 0 0
vn 0.9980469 0 0
vn -1 0 0
vn -1 0 0
vn -1 0 0
vn -1 0 0
vn 0 0 0.9980469
vn 0 0 0.9980469
vn 0 0 0.9980469
vn 0 0 0.9980469
vn -1 0 0
vn -1 0 0
vn -1 0 0
vn -1 0 0
vn 0.9980469 0 0
vn 0.9980469 0 0
vn 0.9980469 0 0
vn 0.9980469 0 0
vn 0 0 0.9980469
vn 0 0 0.9980469
vn 0 0 0.9980469
vn 0 0 0.9980469
vn 0 0 0.9980469
vn 0 0 0.9980469
vn 0 0 0.9980469
vn 0 0 0.9980469
vn -0.6699219 0.7421875 0
vn -0.6699219 0.7421875 0
vn -0.6699219 0.7421875 0
vn -0.6699219 0.7421875 0
vn -0.6699219 0.7421875 0
vn -0.6699219 0.7421875 0
vn -0.6699219 0.7421875 0
vn -0.6699219 0.7421875 0
vn 0.6699219 0.7421875 0
vn 0.3574219 0.9335938 0
vn 0.3574219 0.9335938 0
vn 0.6699219 0.7421875 0
vn 0.6699219 0.7421875 0
vn 0.3574219 0.9335938 0
vn 0.3574219 0.9335938 0
vn 0.6699219 0.7421875 0
vn -1 0 0
vn -1 0 0
vn -1 0 0
vn -1 0 0
vn 0.9980469 0 0
vn 0.9980469 0 0
vn 0.9980469 0 0
vn 0.9980469 0 0
vn 0 0.9980469 0
vn 0 0.9980469 0
vn 0 0.9980469 0
vn 0 0.9980469 0
vn -1 0 0
vn -1 0 0
vn -1 0 0
vn -1 0 0
vn 0.9980469 0 0
vn 0.9980469 0 0
vn 0.9980469 0 0
vn 0.9980469 0 0
vn -1 0 0
vn -1 0 0
vn -1 0 0
vn -1 0 0
vn 0.3574219 0.9335938 0
vn 0.3574219 0.9335938 0
vn 0 0.9980469 0
vn 0 0.9980469 0
vn 0.9980469 0 0
vn 0.9980469 0 0
vn 0.9980469 0 0
vn 0.9980469 0 0
vn 0.9980469 0 0
vn 0.9980469 0 0
vn 0.9980469 0 0
vn 0.9980469 0 0
vn -1 0 0
vn -1 0 0
vn -1 0 0
vn -1 0 0
vn 0.9980469 0 0
vn 0.9980469 0 0
vn 0.9980469 0 0
vn 0.9980469 0 0
vn 0.3574219 0.9335938 0
vn 0.3574219 0.9335938 0
vn 0 0.9980469 0
vn 0 0.9980469 0
vn -1 0 0
vn -1 0 0
vn -1 0 0
vn -1 0 0
vn 0.9980469 0 0
vn 0.9980469 0 0
vn 0.9980469 0 0
vn 0.9980469 0 0
vn 0 0.9980469 0
vn 0 0.9980469 0
vn 0 0.9980469 0
vn 0 0.9980469 0
vn 0.9980469 0 0
vn 0.9980469 0 0
vn 0.9980469 0 0
vn 0.9980469 0 0
vn 0 0.9980469 0
vn 0 0.9980469 0
vn 0 0.9980469 0
vn 0 0.9980469 0
vn -1 0 0
vn -1 0 0
vn -1 0 0
vn -1 0 0
vn -1 0 0
vn -1 0 0
vn -1 0 0
vn -1 0 0
vn -1 0 0
vn -1 0 0
vn -1 0 0
vn -1 0 0
vn 0.9980469 0 0
vn 0.9980469 0 0
vn 0.9980469 0 0
vn 0.9980469 0 0
vn 0 0 0.9980469
vn 0 0 0.9980469
vn 0 0 0.9980469
vn 0 0 0.9980469
vn 0 0 0.9980469
vn 0 0 0.9980469
vn 0 0 0.9980469
vn 0 0 0.9980469
vn 0 0 0.9980469
vn 0 0 0.9980469
vn 0 0 0.9980469
vn 0 0 0.9980469
vn 0 0 0.9980469
vn 0 0 0.9980469
vn 0 0 0.9980469
vn 0 0 0.9980469
vn 0.9980469 0 0
vn 0.9980469 0 0
vn 0.9980469 0 0
vn 0.9980469 0 0
vn -1 0 0
vn -1 0 0
vn -1 0 0
vn -1 0 0
vt 0.984375 -0.890625
vt 0.890625 -0.890625
vt 0.890625 -0.90625
vt 0.984375 -0.90625
vt 0.984375 -0.890625
vt 0.890625 -0.890625
vt 0.890625 -0.984375
vt 0.984375 -0.984375
vt -0.3896484 -0.8876953
vt -0.3896484 -0.9345703
vt -0.4521484 -0.9345703
vt -0.4833984 -0.8876953
vt 0.984375 -0.890625
vt 0.890625 -0.890625
vt 0.890625 -0.984375
vt 0.984375 -0.984375
vt 0.015625 -0.890625
vt 0.015625 -0.984375
vt 0.359375 -0.984375
vt 0.359375 -0.890625
vt 0.984375 -0.890625
vt 0.890625 -0.890625
vt 0.890625 -0.984375
vt 0.984375 -0.984375
vt 0.984375 -0.890625
vt 0.890625 -0.890625
vt 0.890625 -0.984375
vt 0.984375 -0.984375
vt 0.984375 -0.890625
vt 0.890625 -0.890625
vt 0.890625 -0.984375
vt 0.984375 -0.984375
vt -0.140625 -0.859375
vt -0.21875 -0.828125
vt -0.21875 -0.765625
vt -0.140625 -0.765625
vt 0.984375 -0.859375
vt 0.984375 -0.515625
vt 0.765625 -0.515625
vt 0.765625 -0.859375
vt 0.390625 -0.890625
vt 0.390625 -0.984375
vt 0.484375 -0.984375
vt 0.484375 -0.890625
vt 0.359375 -0.984375
vt 0.359375 -0.890625
vt 0.015625 -0.890625
vt 0.015625 -0.984375
vt 0.390625 -0.984375
vt 0.484375 -0.984375
vt 0.484375 -0.890625
vt 0.390625 -0.890625
vt 0.359375 -0.890625
vt 0.015625 -0.890625
vt 0.015625 -0.984375
vt 0.359375 -0.984375
vt 0.640625 -0.984375
vt 0.734375 -0.984375
vt 0.734375 -0.890625
vt 0.640625 -0.890625
vt 0.640625 -0.984375
vt 0.734375 -0.984375
vt 0.734375 -0.890625
vt 0.640625 -0.890625
vt 0.015625 -0.890625
vt 0.015625 -0.984375
vt 0.359375 -0.984375
vt 0.359375 -0.890625
vt 0.015625 -0.984375
vt 0.359375 -0.984375
vt 0.359375 -0.890625
vt 0.015625 -0.890625
vt 0.015625 -0.984375
vt 0.359375 -0.984375
vt 0.359375 -0.890625
vt 0.015625 -0.890625
vt 0.015625 -0.984375
vt 0.359375 -0.984375
vt 0.359375 -0.890625
vt 0.015625 -0.890625
vt 0.015625 -0.890625
vt 0.015625 -0.984375
vt 0.359375 -0.984375
vt 0.359375 -0.890625
vt 0.015625 -0.890625
vt 0.015625 -0.984375
vt 0.359375 -0.984375
vt 0.359375 -0.890625
vt 0.015625 -0.890625
vt 0.015625 -0.984375
vt 0.359375 -0.984375
vt 0.359375 -0.890625
vt 0.390625 -0.234375
vt 0.484375 -0.234375
vt 0.484375 -0.140625
vt 0.390625 -0.140625
vt 0.359375 -0.484375
vt 0.359375 -0.015625
vt 0.015625 -0.015625
vt 0.015625 -0.484375
vt 0.359375 -0.484375
vt 0.359375 -0.015625
vt 0.015625 -0.015625
vt 0.015625 -0.484375
vt 0.359375 -0.484375
vt 0.359375 -0.015625
vt 0.015625 -0.015625
vt 0.015625 -0.484375
vt 0.359375 -0.484375
vt 0.359375 -0.015625
vt 0.015625 -0.015625
vt 0.015625 -0.484375
vt 0.890625 -0.90625
vt 0.890625 -0.890625
vt 0.984375 -0.890625
vt 0.984375 -0.90625
vt 0.765625 -0.890625
vt 0.765625 -0.984375
vt 0.859375 -0.984375
vt 0.859375 -0.890625
vt 0.484375 -0.984375
vt 0.484375 -0.890625
vt 0.390625 -0.890625
vt 0.390625 -0.984375
vt 0.734375 -0.984375
vt 0.734375 -0.890625
vt 0.640625 -0.890625
vt 0.640625 -0.984375
vt 0.640625 -0.890625
vt 0.640625 -0.984375
vt 0.734375 -0.984375
vt 0.734375 -0.890625
vt -0.4208984 -0.9345703
vt -0.4052734 -0.8876953
vt -0.4833984 -0.8876953
vt -0.4833984 -0.9345703
vt 0.4023438 -0.09765625
vt 0.4746094 -0.09472656
vt 0.4746094 -0.03417969
vt 0.4023438 -0.03710938
vt -0.4052734 -0.8876953
vt -0.4208984 -0.9345703
vt -0.4833984 -0.9345703
vt -0.4833984 -0.8876953
vt 0.984375 -0.984375
vt 0.984375 -0.890625
vt 0.890625 -0.890625
vt 0.890625 -0.984375
vt 0.359375 -0.890625
vt 0.015625 -0.890625
vt 0.015625 -0.984375
vt 0.359375 -0.984375
vt 0.984375 -0.984375
vt 0.984375 -0.890625
vt 0.890625 -0.890625
vt 0.890625 -0.984375
vt 0.4013672 -0.09765625
vt 0.4736328 -0.09472656
vt 0.4736328 -0.03417969
vt 0.4013672 -0.03710938
vt 0.984375 -0.984375
vt 0.984375 -0.890625
vt 0.890625 -0.890625
vt 0.890625 -0.984375
vt 0.984375 -0.984375
vt 0.984375 -0.890625
vt 0.890625 -0.890625
vt 0.890625 -0.984375
vt 0.484375 -0.890625
vt 0.390625 -0.890625
vt 0.390625 -0.984375
vt 0.484375 -0.984375
vt -0.4052734 -0.9345703
vt -0.4052734 -0.8876953
vt -0.3896484 -0.8876953
vt -0.3896484 -0.9345703
vt 0.484375 -0.890625
vt 0.390625 -0.890625
vt 0.390625 -0.984375
vt 0.484375 -0.984375
vt -0.4052734 -0.8876953
vt -0.4052734 -0.9345703
vt -0.3896484 -0.9345703
vt -0.3896484 -0.8876953
vt 0.359375 -0.890625
vt 0.015625 -0.890625
vt 0.015625 -0.984375
vt 0.359375 -0.984375
vt -0.3896484 -0.9345703
vt -0.3896484 -0.8876953
vt -0.4833984 -0.8876953
vt -0.4521484 -0.9345703
vt 0.359375 -0.984375
vt 0.359375 -0.890625
vt 0.015625 -0.890625
vt 0.015625 -0.984375
vt 0.515625 -0.890625
vt 0.515625 -0.984375
vt 0.609375 -0.984375
vt 0.609375 -0.890625
vt 0.515625 -0.890625
vt 0.515625 -0.984375
vt 0.609375 -0.984375
vt 0.609375 -0.890625
vt 0.390625 -0.515625
vt 0.390625 -0.859375
vt 0.734375 -0.859375
vt 0.734375 -0.515625
vt -0.140625 -0.859375
vt -0.140625 -0.765625
vt -0.234375 -0.765625
vt -0.234375 -0.859375
vt -0.140625 -0.859375
vt -0.140625 -0.765625
vt -0.21875 -0.765625
vt -0.21875 -0.828125
vt 0.859375 -0.984375
vt 0.765625 -0.984375
vt 0.765625 -0.890625
vt 0.859375 -0.890625
f 67/67/67 68/68/68 69/69/69 70/70/70
f 71/71/71 72/72/72 73/73/73 74/74/74
f 75/75/75 76/76/76 77/77/77 78/78/78
f 79/79/79 80/80/80 81/81/81 82/82/82
f 83/83/83 84/84/84 85/85/85 86/86/86
f 87/87/87 88/88/88 89/89/89 90/90/90
f 91/91/91 92/92/92 93/93/93 94/94/94
f 95/95/95 96/96/96 97/97/97 98/98/98
f 99/99/99 100/100/100 101/101/101 102/102/102
f 103/103/103 104/104/104 105/105/105 106/106/106
f 107/107/107 108/108/108 109/109/109 110/110/110
f 111/111/111 112/112/112 113/113/113 114/114/114
f 115/115/115 116/116/116 117/117/117 118/118/118
f 119/119/119 120/120/120 121/121/121 122/122/122
f 123/123/123 124/124/124 125/125/125 126/126/126
f 127/127/127 128/128/128 129/129/129 130/130/130
f 131/131/131 132/132/132 133/133/133 134/134/134
f 135/135/135 136/136/136 137/137/137 138/138/138
f 139/139/139 140/140/140 141/141/141 142/142/142
f 143/143/143 144/144/144 145/145/145 146/146/146
f 147/147/147 148/148/148 149/149/149 150/150/150
f 151/151/151 152/152/152 153/153/153 154/154/154
f 155/155/155 156/156/156 157/157/157 158/158/158
f 159/159/159 160/160/160 161/161/161 162/162/162
f 163/163/163 164/164/164 165/165/165 166/166/166
f 167/167/167 168/168/168 169/169/169 170/170/170
f 171/171/171 172/172/172 173/173/173 174/174/174
f 175/175/175 176/176/176 177/177/177 178/178/178
f 179/179/179 180/180/180 181/181/181 182/182/182
f 183/183/183 184/184/184 185/185/185 186/186/186
f 187/187/187 188/188/188 189/189/189 190/190/190
f 191/191/191 192/192/192 193/193/193 194/194/194
f 195/195/195 196/196/196 197/197/197 198/198/198
f 199/199/199 200/200/200 201/201/201 202/202/202
f 203/203/203 204/204/204 205/205/205 206/206/206
f 207/207/207 208/208/208 209/209/209 210/210/210
f 211/211/211 212/212/212 213/213/213 214/214/214
f 215/215/215 216/216/216 217/217/217 218/218/218
f 219/219/219 220/220/220 221/221/221 222/222/222
f 223/223/223 224/224/224 225/225/225 226/226/226
f 227/227/227 228/228/228 229/229/229 230/230/230
f 231/231/231 232/232/232 233/233/233 234/234/234
f 235/235/235 236/236/236 237/237/237 238/238/238
f 239/239/239 240/240/240 241/241/241 242/242/242
f 243/243/243 244/244/244 245/245/245 246/246/246
f 247/247/247 248/248/248 249/249/249 250/250/250
f 251/251/251 252/252/252 253/253/253 254/254/254
f 255/255/255 256/256/256 257/257/257 258/258/258
f 259/259/259 260/260/260 261/261/261 262/262/262
f 263/263/263 264/264/264 265/265/265 266/266/266
f 267/267/267 268/268/268 269/269/269 270/270/270
f 271/271/271 272/272/272 273/273/273 274/274/274
f 275/275/275 276/276/276 277/277/277 278/278/278
f 279/279/279 280/280/280 281/281/281 282/282/282
f 283/283/283 284/284/284 285/285/285 286/286/286
v 3 2 2.75
v 3 2 14.75
v 3 10 14.75
v 2 45.14844 18.05078
v 5 45.14844 18.05078
v 2 48 18.05078
v -2 45.14844 18.05078
v -2 48 18.05078
v -5 45.14844 18.05078
v -29 38.5 10.75
v -29 38.5 16.75
v -29 44.5 16.75
v 29 44.5 -19.75
v 29 38.5 -13.75
v 29 38.5 -19.75
v -19 2 2.75
v -19 10 14.75
v -19 2 14.75
v -29 38.5 -13.75
v -29 44.5 -19.75
v -29 38.5 -19.75
v 29 44.5 16.75
v 29 38.5 16.75
v 29 38.5 10.75
vn -1 0 0
vn -1 0 0
vn -1 0 0
vn 0 0 0.9980469
vn 0 0 0.9980469
vn 0 0 0.9980469
vn 0 0 0.9980469
vn 0 0 0.9980469
vn 0 0 0.9980469
vn -1 0 0
vn -1 0 0
vn -1 0 0
vn 0.9980469 0 0
vn 0.9980469 0 0
vn 0.9980469 0 0
vn 0.9980469 0 0
vn 0.9980469 0 0
vn 0.9980469 0 0
vn -1 0 0
vn -1 0 0
vn -1 0 0
vn 0.9980469 0 0
vn 0.9980469 0 0
vn 0.9980469 0 0
vt -0.140625 -0.859375
vt -0.21875 -0.859375
vt -0.21875 -0.828125
vt 0.015625 -0.984375
vt 0.015625 -0.984375
vt 0.015625 -0.890625
vt 0.015625 -0.984375
vt 0.015625 -0.984375
vt 0.015625 -0.890625
vt -0.4208984 -0.9345703
vt -0.4052734 -0.9345703
vt -0.4052734 -0.8876953
vt -0.4833984 -0.8876953
vt -0.4521484 -0.9345703
vt -0.4833984 -0.9345703
vt -0.140625 -0.859375
vt -0.21875 -0.828125
vt -0.21875 -0.859375
vt -0.4521484 -0.9345703
vt -0.4833984 -0.8876953
vt -0.4833984 -0.9345703
vt -0.4052734 -0.8876953
vt -0.4052734 -0.9345703
vt -0.4208984 -0.9345703
f 287/287/287 288/288/288 289/289/289
f 290/290/290 291/291/291 292/292/292
f 293/293/293 294/294/294 295/295/295
f 296/296/296 297/297/297 298/298/298
f 299/299/299 300/300/300 301/301/301
f 302/302/302 303/303/303 304/304/304
f 305/305/305 306/306/306 307/307/307
f 308/308/308 309/309/309 310/310/310
