# Blender v2.82 (sub 7) OBJ File: 'flat1.blend'
# www.blender.org
mtllib hover.mtl
o Mesh1_Plate_Grass_Dirt_Model_Mesh1_Plate_Grass_Dirt_Model_1.002
v 1.500000 0.300000 1.500000
v -1.500000 0.000000 1.500000
v 1.500000 0.000000 1.500000
v -1.500000 0.300000 1.500000
v 1.500000 0.300000 1.500000
v 1.500000 0.000000 -1.500000
v 1.500000 0.300000 -1.500000
v 1.500000 0.000000 1.500000
v -1.500000 0.000000 1.500000
v 1.500000 0.000000 -1.500000
v 1.500000 0.000000 1.500000
v -1.500000 0.000000 -1.500000
v -1.500000 0.000000 1.500000
v -1.500000 0.300000 -1.500000
v -1.500000 0.000000 -1.500000
v -1.500000 0.300000 1.500000
v -1.500000 0.300000 -1.500000
v 1.500000 0.000000 -1.500000
v -1.500000 0.000000 -1.500000
v 1.500000 0.300000 -1.500000
v 1.500000 0.300000 1.500000
v -1.500000 0.300000 -1.500000
v -1.500000 0.300000 1.500000
v 1.500000 0.300000 -1.500000
v -1.500000 0.000000 1.500000
v -1.500000 0.000000 -1.500000
v -1.500000 0.300000 -1.500000
v -1.500000 0.300000 1.500000
v -1.500000 0.300000 -1.500000
v -1.500000 0.000000 -1.500000
v 1.500000 0.000000 -1.500000
v 1.500000 0.300000 -1.500000
v 1.500000 0.300000 1.500000
v 1.500000 0.000000 1.500000
v -1.500000 0.000000 1.500000
v -1.500000 0.300000 1.500000
v 1.500000 0.300000 1.500000
v 1.500000 0.300000 -1.500000
v 1.500000 0.000000 -1.500000
v 1.500000 0.000000 1.500000
vt 118.110001 11.811000
vt 0.000000 0.000000
vt 118.110001 0.000000
vt 0.000000 11.811000
vt 0.000000 11.811000
vt 118.110001 0.000000
vt 118.110001 11.811000
vt 0.000000 0.000000
vt 0.000000 0.000000
vt -118.110001 11.811000
vt -118.110001 0.000000
vt 0.000000 11.811000
vt 0.000000 11.811000
vt -118.110001 0.000000
vt 0.000000 0.000000
vt -118.110001 11.811000
vt -118.110001 0.000000
vt 0.000000 0.000000
vt -118.110001 11.811000
vt 0.000000 11.811000
vt 0.000000 0.000000
vt 0.000000 11.811000
vt -118.110001 0.000000
vt -118.110001 11.811000
vt 118.110001 0.000000
vt 118.110001 11.811000
vt 0.000000 0.000000
vt 0.000000 11.811000
vt 118.110001 11.811000
vt 0.000000 11.811000
vt 118.110001 0.000000
vt 0.000000 0.000000
vn 0.0000 0.0000 1.0000
vn 1.0000 0.0000 0.0000
vn -1.0000 0.0000 0.0000
vn 0.0000 0.0000 -1.0000
vn 0.0000 0.0000 0.0000
usemtl Wood.002
s 1
f 33/1/1 35/2/1 34/3/1
f 35/2/1 33/1/1 36/4/1
f 37/5/2 39/6/2 38/7/2
f 39/6/2 37/5/2 40/8/2
f 25/9/3 27/10/3 26/11/3
f 27/10/3 25/9/3 28/12/3
f 29/13/4 31/14/4 30/15/4
f 31/14/4 29/13/4 32/16/4
f 25/9/5 26/11/5 15/17/5 13/18/5
f 26/11/5 27/10/5 14/19/5 15/17/5
f 27/10/5 28/12/5 16/20/5 14/19/5
f 28/12/5 25/9/5 13/18/5 16/20/5
f 29/13/1 30/15/1 19/21/1 17/22/1
f 30/15/1 31/14/1 18/23/1 19/21/1
f 31/14/1 32/16/1 20/24/1 18/23/1
f 32/16/1 29/13/1 17/22/1 20/24/1
f 33/1/1 34/3/1 3/25/1 1/26/1
f 34/3/1 35/2/1 2/27/1 3/25/1
f 35/2/1 36/4/1 4/28/1 2/27/1
f 36/4/1 33/1/1 1/26/1 4/28/1
f 37/5/5 38/7/5 7/29/5 5/30/5
f 38/7/5 39/6/5 6/31/5 7/29/5
f 39/6/5 40/8/5 8/32/5 6/31/5
f 40/8/5 37/5/5 5/30/5 8/32/5
l 9 11
l 9 10
l 10 11
l 10 12
l 9 12
l 21 23
l 21 22
l 22 23
l 22 24
l 21 24
